HIERARCHY
ROOT Hips
{
	OFFSET -0.001795 -0.223333 0.028219
	CHANNELS 6 Xposition Yposition Zposition Zrotation Yrotation Xrotation 
	JOINT LeftUpLeg
	{
		OFFSET 0.069520 -0.091406 -0.006815
		CHANNELS 3 Zrotation Yrotation Xrotation
		JOINT LeftLeg
		{
			OFFSET 0.034277 -0.375199 -0.004496
			CHANNELS 3 Zrotation Yrotation Xrotation
			JOINT LeftFoot
			{
				OFFSET -0.013596 -0.397961 -0.043693
				CHANNELS 3 Zrotation Yrotation Xrotation
				JOINT LeftToe
				{
					OFFSET 0.026358 -0.055791 0.119288
					CHANNELS 3 Zrotation Yrotation Xrotation
					End Site
					{
						OFFSET 0.000000 0.000000 0.000000
					}
				}
			}
		}
	}
	JOINT RightUpLeg
	{
		OFFSET -0.067670 -0.090522 -0.004320
		CHANNELS 3 Zrotation Yrotation Xrotation
		JOINT RightLeg
		{
			OFFSET -0.038290 -0.382569 -0.008850
			CHANNELS 3 Zrotation Yrotation Xrotation
			JOINT RightFoot
			{
				OFFSET 0.015774 -0.398415 -0.042312
				CHANNELS 3 Zrotation Yrotation Xrotation
				JOINT RightToe
				{
					OFFSET -0.025372 -0.048144 0.123348
					CHANNELS 3 Zrotation Yrotation Xrotation
					End Site
					{
						OFFSET 0.000000 0.000000 0.000000
					}
				}
			}
		}
	}
	JOINT Spine
	{
		OFFSET -0.002533 0.108963 -0.026696
		CHANNELS 3 Zrotation Yrotation Xrotation
		JOINT Spine1
		{
			OFFSET 0.005487 0.135180 0.001092
			CHANNELS 3 Zrotation Yrotation Xrotation
			JOINT Spine2
			{
				OFFSET 0.001457 0.052922 0.025425
				CHANNELS 3 Zrotation Yrotation Xrotation
				JOINT Neck
				{
					OFFSET -0.002778 0.213870 -0.042857
					CHANNELS 3 Zrotation Yrotation Xrotation
					JOINT Head
					{
						OFFSET 0.005152 0.064970 0.051349
						CHANNELS 3 Zrotation Yrotation Xrotation
						End Site
						{
							OFFSET 0.000000 0.000000 0.000000
						}
					}
				}
				JOINT LeftShoulder
				{
					OFFSET 0.078845 0.121749 -0.034090
					CHANNELS 3 Zrotation Yrotation Xrotation
					JOINT LeftArm
					{
						OFFSET 0.090977 0.030469 -0.008868
						CHANNELS 3 Zrotation Yrotation Xrotation
						JOINT LeftForeArm
						{
							OFFSET 0.259612 -0.012772 -0.027456
							CHANNELS 3 Zrotation Yrotation Xrotation
							JOINT LeftHand
							{
								OFFSET 0.249234 0.008986 -0.001171
								CHANNELS 3 Zrotation Yrotation Xrotation
								End Site
								{
									OFFSET 0.000000 0.000000 0.000000
								}
							}
						}
					}
				}
				JOINT RightShoulder
				{
					OFFSET -0.081759 0.118833 -0.038615
					CHANNELS 3 Zrotation Yrotation Xrotation
					JOINT RightArm
					{
						OFFSET -0.096012 0.032551 -0.009143
						CHANNELS 3 Zrotation Yrotation Xrotation
						JOINT RightForeArm
						{
							OFFSET -0.253742 -0.013329 -0.021401
							CHANNELS 3 Zrotation Yrotation Xrotation
							JOINT RightHand
							{
								OFFSET -0.255298 0.007772 -0.005559
								CHANNELS 3 Zrotation Yrotation Xrotation
								End Site
								{
									OFFSET 0.000000 0.000000 0.000000
								}
							}
						}
					}
				}
			}
		}
	}
}
MOTION
Frames: 12
Frame Time: 0.050000
0.000000 0.947761 0.000000 -1.093927 -4.574097 3.932627 5.491293 -0.208125 -3.509725 -2.218738 0.270567 -0.605883 3.612013 6.925194 -3.210549 0.000000 0.000000 0.000000 -2.531280 0.423244 -4.173775 1.118073 -0.096742 0.294829 -2.968064 -11.425100 13.166544 0.000000 0.000000 0.000000 -2.045959 0.086300 -1.469206 5.498032 -1.350161 -16.837477 -0.111624 0.279017 19.114242 -3.070102 2.788413 -13.330821 0.000000 0.000000 0.000000 -26.460703 -2.323695 0.411552 -50.300408 -7.607923 -4.615436 -2.233326 -18.604778 1.264105 0.000000 0.000000 0.000000 15.993854 6.949672 1.920526 55.807765 -5.247231 -9.297919 -2.384737 24.111492 0.396304 0.000000 0.000000 0.000000 
0.000172 0.946152 0.001250 -1.277906 -5.223354 4.463838 5.767762 -0.188880 -3.228006 -2.479035 0.315468 -1.738889 3.843075 7.496761 -3.209086 0.000000 0.000000 0.000000 -2.952156 0.430183 -4.148196 2.091397 -0.211088 -0.773170 -2.661670 -10.888997 12.901353 0.000000 0.000000 0.000000 -1.901464 0.113050 -2.260761 5.390064 -1.324127 -16.878817 0.070905 1.090211 19.105260 -2.965241 2.772334 -13.455787 0.000000 0.000000 0.000000 -26.672453 -2.856238 0.617006 -50.203198 -7.616025 -4.592630 -2.321010 -17.515218 1.182665 0.000000 0.000000 0.000000 16.071479 7.033075 2.057252 56.193185 -6.802180 -10.084800 -1.317887 25.256323 0.650532 0.000000 0.000000 0.000000 
0.000622 0.945060 0.002006 -0.881863 -4.830415 4.152347 5.368315 -0.210802 -3.490202 -2.542229 0.310312 -0.769930 3.776920 7.181574 -3.771015 0.000000 0.000000 0.000000 -3.213465 0.423478 -4.079423 1.784559 -0.170973 -0.143828 -2.988249 -11.285174 12.320010 0.000000 0.000000 0.000000 -1.618499 0.102493 -2.069742 4.931415 -1.120753 -17.718055 -0.346484 1.025165 19.671137 -2.297560 2.352686 -14.640053 0.000000 0.000000 0.000000 -26.157296 -3.186894 0.790349 -49.897722 -7.604083 -4.607616 -2.081227 -15.471353 0.987142 0.000000 0.000000 0.000000 16.568087 8.356749 2.778426 56.104583 -6.632239 -10.037153 -2.053188 23.400216 0.466525 0.000000 0.000000 0.000000 
0.001330 0.944792 0.002449 -1.027742 -5.794990 4.607514 5.844635 -0.212565 -4.046502 -3.328140 0.405636 -0.312470 4.149763 8.081007 -3.927319 0.000000 0.000000 0.000000 -3.567212 0.511777 -5.158595 2.461597 -0.209871 0.710692 -2.599866 -10.647922 12.109518 0.000000 0.000000 0.000000 -1.640023 0.124372 -2.580613 5.701843 -1.295932 -18.519300 -0.606535 1.721365 20.084494 -2.284557 2.354020 -14.107162 0.000000 0.000000 0.000000 -26.546071 -3.163727 0.751243 -50.086450 -7.215343 -4.807857 -1.115992 -13.698101 0.753745 0.000000 0.000000 0.000000 16.158146 9.219342 3.255315 56.316404 -7.572753 -10.541478 -2.010438 24.275967 0.495161 0.000000 0.000000 0.000000 
0.002392 0.945023 0.002631 -0.852131 -5.815302 4.320034 5.446228 -0.222394 -4.071003 -3.097394 0.376175 0.265138 4.178735 8.116863 -4.081199 0.000000 0.000000 0.000000 -3.971299 0.510749 -5.160800 2.712495 -0.224033 1.247357 -2.603834 -10.646562 12.075290 0.000000 0.000000 0.000000 -1.156343 0.106390 -2.174087 5.689061 -1.311809 -18.321615 -1.204278 2.243851 19.838048 -2.223951 2.410499 -15.125066 0.000000 0.000000 0.000000 -25.748772 -3.521353 0.788851 -50.583912 -6.711726 -4.955272 -0.675169 -12.788831 0.642412 0.000000 0.000000 0.000000 16.501371 9.201010 3.367609 56.075370 -7.561733 -10.468602 -1.487534 23.435909 0.587253 0.000000 0.000000 0.000000 
0.003867 0.945547 0.002350 -0.756079 -5.981653 4.393540 5.276033 -0.233689 -4.226135 -3.176688 0.387059 0.363533 4.228062 8.263432 -3.990742 0.000000 0.000000 0.000000 -4.285842 0.527532 -5.374840 2.887452 -0.238373 1.362902 -2.500224 -10.531376 12.279027 0.000000 0.000000 0.000000 -1.101072 0.095165 -1.861826 5.570007 -1.247006 -18.737009 -0.957254 2.430389 20.037174 -2.397655 2.544630 -15.345571 0.000000 0.000000 0.000000 -25.720075 -3.438138 0.731032 -50.583530 -6.364164 -5.110510 -0.250791 -12.355146 0.577013 0.000000 0.000000 0.000000 16.108088 9.518376 3.543637 56.240222 -7.881573 -10.663650 -1.151655 23.087661 0.637748 0.000000 0.000000 0.000000 
0.005726 0.945708 0.001673 -0.755654 -6.209778 4.383886 5.211638 -0.240764 -4.405828 -3.306490 0.405195 0.658583 4.318978 8.479405 -4.053094 0.000000 0.000000 0.000000 -4.407379 0.546082 -5.630527 2.859067 -0.228169 1.672404 -2.391384 -10.384271 12.355828 0.000000 0.000000 0.000000 -0.854907 0.078069 -1.465475 5.529353 -1.239182 -18.754854 -0.958654 2.662894 20.273372 -2.220237 2.451315 -15.871606 0.000000 0.000000 0.000000 -25.642527 -3.088199 0.496004 -50.521410 -6.005982 -5.265739 0.349934 -12.331508 0.518285 0.000000 0.000000 0.000000 16.366984 9.438985 3.531549 55.861170 -7.425046 -10.409349 -1.057092 23.266892 0.665455 0.000000 0.000000 0.000000 
0.008351 0.945906 0.000805 -0.793643 -6.186701 4.448084 4.978658 -0.275078 -4.969632 -3.112981 0.378284 1.395427 4.367376 8.550784 -4.244288 0.000000 0.000000 0.000000 -4.283647 0.572944 -6.031237 2.416638 -0.171932 2.142777 -2.409439 -10.455683 12.489132 0.000000 0.000000 0.000000 -0.670652 0.056430 -0.969697 5.731577 -1.296830 -18.738302 -0.962819 2.733969 20.350132 -2.062393 2.355186 -15.766882 0.000000 0.000000 0.000000 -25.800194 -3.275899 0.573492 -49.918954 -5.525939 -5.402347 0.502724 -12.690274 0.515776 0.000000 0.000000 0.000000 16.477954 9.631945 3.658688 55.384068 -7.037969 -10.151972 -0.903701 23.010253 0.685031 0.000000 0.000000 0.000000 
0.011891 0.946010 -0.000153 -0.918525 -6.330443 4.537831 4.947518 -0.297540 -5.472866 -3.235903 0.396526 2.017875 4.462527 8.743169 -4.451315 0.000000 0.000000 0.000000 -4.343733 0.584591 -6.177266 2.338876 -0.164701 2.051528 -2.295185 -10.341713 12.758622 0.000000 0.000000 0.000000 -0.408230 0.026465 -0.340067 5.823024 -1.328311 -18.692692 -0.680134 3.128105 20.421487 -2.025423 2.374791 -15.880687 0.000000 0.000000 0.000000 -25.844300 -3.339783 0.513157 -49.729003 -5.344741 -5.438125 0.160990 -13.469243 0.583782 0.000000 0.000000 0.000000 16.752019 9.455130 3.642744 54.598708 -6.859886 -9.932349 -0.466523 23.323974 0.782286 0.000000 0.000000 0.000000 
0.016534 0.945995 -0.001373 -0.940595 -6.111295 4.714617 4.623604 -0.350700 -6.228575 -3.112850 0.376826 2.752112 4.455035 8.653431 -4.711273 0.000000 0.000000 0.000000 -4.516966 0.620155 -6.736869 2.181689 -0.136205 2.565021 -2.399520 -10.570601 13.005508 0.000000 0.000000 0.000000 -0.271376 0.000365 0.215796 5.943137 -1.327378 -19.003449 -0.567039 3.192122 20.894878 -1.958113 2.380615 -16.768650 0.000000 0.000000 0.000000 -25.850399 -3.526893 0.588130 -50.005498 -5.167240 -5.562572 0.247326 -14.382457 0.618774 0.000000 0.000000 0.000000 16.684452 9.731522 3.845666 54.115380 -6.396054 -9.685503 -0.023007 23.382562 0.871042 0.000000 0.000000 0.000000 
0.022077 0.946295 -0.002876 -0.879474 -5.601122 4.893401 4.407733 -0.400414 -6.893645 -3.396497 0.414572 3.178274 4.308664 8.231471 -4.840493 0.000000 0.000000 0.000000 -4.746648 0.637118 -7.085644 1.896654 -0.102632 2.726845 -2.600082 -10.983882 13.478286 0.000000 0.000000 0.000000 -0.209604 -0.028101 0.866574 5.848112 -1.306077 -18.794302 -0.068171 3.366818 20.800714 -1.976093 2.462113 -17.015731 0.000000 0.000000 0.000000 -26.126335 -3.805727 0.569642 -49.768419 -4.657339 -5.681439 -0.418011 -15.495022 0.746194 0.000000 0.000000 0.000000 16.989116 10.020858 4.122445 53.466072 -5.401528 -9.139967 -0.197623 23.284712 0.845815 0.000000 0.000000 0.000000 
0.028167 0.946396 -0.004672 -0.706870 -5.286784 5.180910 3.775634 -0.492427 -7.919051 -3.254779 0.391305 4.030941 4.270102 8.068210 -5.031708 0.000000 0.000000 0.000000 -4.888585 0.699533 -8.119481 1.270704 0.010857 3.981832 -2.913962 -11.480653 13.365135 0.000000 0.000000 0.000000 -0.391987 -0.062049 1.915215 6.245526 -1.406254 -18.776668 0.255703 3.502821 21.017891 -1.766139 2.372031 -17.261513 0.000000 0.000000 0.000000 -26.394790 -3.934859 0.529671 -49.721842 -4.549464 -5.705859 -1.274326 -17.347349 0.965421 0.000000 0.000000 0.000000 17.214984 11.165685 4.824823 52.674650 -3.654256 -8.297122 -0.952790 24.469918 0.757876 0.000000 0.000000 0.000000 
